# xmcd
#
# Track frame offsets:
# 150
# 20887
# 50942
# 64762
# 94852
# 111045
# 129015
# 141145
# 162787
# 186405
# 228177
# 258200
#
# Disc length: 3767 seconds
#
#
# Revision: 4
# Processed by: cddbd v1.5.1PL2 Copyright (c) Steve Scherf et al.
# Submitted via: FreeRIP 2.945 
#
DISCID=a30eb50c
DTITLE=Astor Piazzolla - Adios Nonino
DYEAR=1994
DGENRE=Tango
TTITLE0=Introduccion Del 聲gel
TTITLE1=Milonga Del 聲gel
TTITLE2=La Muerte Del 聲gel
TTITLE3=Resurrecci犥 Del 聲gel
TTITLE4=Oblivion
TTITLE5=Cavalcata
TTITLE6=Enrico I V
TTITLE7=Remembrance
TTITLE8=Primavera Porte鎙
TTITLE9=Verano Porte隳
TTITLE10=Oto隳 Porte隳
TTITLE11=Invierno Porte隳
EXTD=YEAR: 1994 ID3G: 113
EXTT0=
EXTT1=
EXTT2=
EXTT3=
EXTT4=
EXTT5=
EXTT6=
EXTT7=
EXTT8=
EXTT9=
EXTT10=
EXTT11=
PLAYORDER=
